<svg width="654" height="403" viewBox="0 0 654 403" fill="none" xmlns="http://www.w3.org/2000/svg">
<path d="M602.235 322.578H50.9722V32.849C50.9722 14.707 65.6792 0 83.8212 0H569.384C587.526 0 602.234 14.707 602.234 32.849L602.235 322.578Z" fill="#22211E"/>
<path d="M107.169 322.578H546.038V60.028C546.038 56.218 542.949 53.129 539.139 53.129H114.068C110.258 53.129 107.169 56.218 107.169 60.028V322.578Z" fill="white"/>
<path d="M370.23 179.744L288.774 132.716C284.575 130.292 279.326 133.322 279.326 138.171V232.228C279.326 237.077 284.575 240.107 288.774 237.683L370.23 190.654C374.429 188.229 374.429 182.168 370.23 179.744Z" fill="#91252A"/>
<path d="M601.269 272.057H574.509C545.823 272.057 522.568 295.312 522.568 323.998C522.568 295.312 499.313 272.057 470.627 272.057H443.867C415.181 272.057 391.926 295.312 391.926 323.998C391.926 295.312 368.671 272.057 339.985 272.057H313.225C284.539 272.057 261.284 295.312 261.284 323.998C261.284 295.312 238.029 272.057 209.343 272.057H182.583C153.897 272.057 130.642 295.312 130.642 323.998C130.642 295.312 107.387 272.057 78.701 272.057H51.941C23.255 272.057 0 295.312 0 323.998V369.491C0 387.832 14.868 402.7 33.209 402.7H130.643H261.286H391.929H522.572H620.006C638.347 402.7 653.215 387.832 653.215 369.491V323.998C653.211 295.312 629.956 272.057 601.269 272.057Z" fill="#751A1E"/>
<path d="M601.269 272.057H574.509C545.823 272.057 522.568 295.312 522.568 323.998C522.568 295.312 499.313 272.057 470.627 272.057H443.867C415.181 272.057 391.926 295.312 391.926 323.998C391.926 295.312 368.671 272.057 339.985 272.057H313.225C284.539 272.057 261.284 295.312 261.284 323.998C261.284 295.312 238.029 272.057 209.343 272.057H182.583C153.897 272.057 130.642 295.312 130.642 323.998C130.642 295.312 107.387 272.057 78.701 272.057H51.941C23.255 272.057 0 295.312 0 323.998V340.781C0 312.095 23.255 288.84 51.941 288.84H78.701C107.387 288.84 130.642 312.095 130.642 340.781C130.642 312.095 153.897 288.84 182.583 288.84H209.343C238.03 288.84 261.284 312.095 261.284 340.781C261.284 312.095 284.539 288.84 313.225 288.84H339.985C368.671 288.84 391.926 312.095 391.926 340.781C391.926 312.095 415.181 288.84 443.867 288.84H470.627C499.313 288.84 522.568 312.095 522.568 340.781C522.568 312.095 545.823 288.84 574.509 288.84H601.269C629.956 288.84 653.21 312.095 653.21 340.781V323.998C653.211 295.312 629.956 272.057 601.269 272.057Z" fill="#91252A"/>
</svg>
